<svg xmlns="http://www.w3.org/2000/svg" viewBox="0 0 32 32" fill="none">
  <defs>
    <linearGradient id="mew-bg" x1="4" y1="2" x2="28" y2="30" gradientUnits="userSpaceOnUse">
      <stop stop-color="#fb923c" />
      <stop offset="1" stop-color="#ea580c" />
    </linearGradient>
    <linearGradient id="paw-main" x1="9" y1="8" x2="23" y2="24" gradientUnits="userSpaceOnUse">
      <stop stop-color="#fffaf2" />
      <stop offset="1" stop-color="#ffedd5" />
    </linearGradient>
  </defs>
  <rect width="32" height="32" rx="8" fill="url(#mew-bg)" />
  <circle cx="9.2" cy="11.5" r="2.5" fill="url(#paw-main)" />
  <circle cx="13.8" cy="8.7" r="2.3" fill="url(#paw-main)" />
  <circle cx="18.2" cy="8.7" r="2.3" fill="url(#paw-main)" />
  <circle cx="22.8" cy="11.5" r="2.5" fill="url(#paw-main)" />
  <path
    d="M16 15.8c4.8 0 8 2.9 8 6.4 0 3.2-2.4 5.6-5.6 5.6-1.4 0-2.2-.5-2.9-1.3-.7.8-1.5 1.3-2.9 1.3-3.2 0-5.6-2.4-5.6-5.6 0-3.5 3.2-6.4 8-6.4Z"
    fill="url(#paw-main)"
  />
  <g fill="#fecdd3">
    <ellipse cx="9.2" cy="11.7" rx="1.05" ry="1.2" />
    <ellipse cx="13.8" cy="8.9" rx="0.95" ry="1.1" />
    <ellipse cx="18.2" cy="8.9" rx="0.95" ry="1.1" />
    <ellipse cx="22.8" cy="11.7" rx="1.05" ry="1.2" />
    <path d="M16 19.2c1.4-2 4-2.3 5.1-.6.9 1.5.1 3.2-1.2 4.4-.8.8-1.8 1.6-3.9 2.7-2.1-1.1-3.1-1.9-3.9-2.7-1.3-1.2-2.1-2.9-1.2-4.4 1.1-1.7 3.7-1.4 5.1.6Z" />
  </g>
  <circle cx="24.8" cy="7.4" r="1" fill="#fff7ed" opacity="0.9" />
  <circle cx="26.6" cy="9.1" r="0.55" fill="#fff7ed" opacity="0.75" />
</svg>
